<svg xmlns="http://www.w3.org/2000/svg" viewBox="0 0 2806.33 1678.6"><defs><style>.cls-1,.cls-8{fill:#efaf00;}.cls-1,.cls-16,.cls-3,.cls-7{stroke:#000;}.cls-1,.cls-10,.cls-14,.cls-15,.cls-16,.cls-18,.cls-3,.cls-4,.cls-5,.cls-7{stroke-linecap:round;stroke-linejoin:round;}.cls-1,.cls-14,.cls-16,.cls-3,.cls-4,.cls-5,.cls-7{stroke-width:6px;}.cls-2{fill:#1c0e0c;}.cls-13,.cls-3{fill:#c5dcdd;}.cls-12,.cls-4{fill:#f4f1ed;}.cls-10,.cls-14,.cls-15,.cls-18,.cls-4,.cls-5{stroke:#070707;}.cls-10,.cls-15,.cls-16,.cls-5{fill:none;}.cls-6{fill:#ffeff0;}.cls-7{fill:#f46f40;}.cls-9{fill:#fff;}.cls-10{stroke-width:6px;}.cls-11{fill:#070707;}.cls-14,.cls-17{fill:#fcbe9f;}.cls-15,.cls-18{stroke-width:4px;}.cls-18{fill:#f7f3ef;}</style></defs><g id="Layer_2" data-name="Layer 2"><g id="Layer_1-2" data-name="Layer 1"><g id="Layer_1-3" data-name="Layer 1"><g id="FIGURES"><rect class="cls-1" x="578.4" y="114.02" width="454.04" height="563.12" rx="36.27"/><rect class="cls-2" x="846.45" y="114.02" width="44.13" height="563.64"/><rect class="cls-3" x="2198.08" y="496.32" width="454.04" height="443.93" rx="36.27"/><rect class="cls-2" x="2339.94" y="496.32" width="44.13" height="444.34"/></g><g id="PLANT"><path class="cls-4" d="M2600.16,1347.14c43.1,25.74,210.86-461.64,202.9-491.63C2803.09,855.51,2524,1301.67,2600.16,1347.14Z"/><path class="cls-5" d="M2566.63,1487.44s47.71-319.33,234.2-623.51"/><path class="cls-4" d="M2746.64,1236.38s-89.63,234.7-140.83,209.09C2555.55,1420.33,2746.64,1236.38,2746.64,1236.38Z"/><path class="cls-5" d="M2579,1487.44s111.22-175.26,167.67-250.25"/><path class="cls-4" d="M2616.79,689.28s15,529.58-50.16,529.58C2490.25,1218.86,2616.79,689.28,2616.79,689.28Z"/><path class="cls-5" d="M2554.55,1487.44S2561,1017,2616.79,692.89"/><path class="cls-4" d="M2396.18,978.78s39.16,368.06,104.35,356.73C2566.63,1324,2396.18,978.78,2396.18,978.78Z"/><line class="cls-5" x1="2398.12" y1="982.58" x2="2545.16" y2="1489.39"/><path class="cls-4" d="M2561,1658.2h0a89.88,89.88,0,0,1-89.87-89.88v-23.74a37.49,37.49,0,0,1,13.66-28.94l23.87-19.66a37.52,37.52,0,0,1,23.83-8.54h57a37.54,37.54,0,0,1,23.83,8.54l23.87,19.66a37.49,37.49,0,0,1,13.66,28.94v23.74A89.88,89.88,0,0,1,2561,1658.2Z"/><line class="cls-5" x1="2576.79" y1="1031.3" x2="2614.43" y2="996.56"/><line class="cls-5" x1="2575.94" y1="1049.08" x2="2613.58" y2="1014.33"/><line class="cls-5" x1="2575.94" y1="881.98" x2="2587.5" y2="913.39"/><line class="cls-5" x1="2652.21" y1="1176.58" x2="2700.38" y2="1176.58"/><line class="cls-5" x1="2655.6" y1="1164.73" x2="2703.77" y2="1164.73"/><line class="cls-5" x1="2729.46" y1="993.58" x2="2767.96" y2="993.58"/><line class="cls-5" x1="2439.5" y1="1230.02" x2="2476.09" y2="1251.34"/><line class="cls-5" x1="2442.88" y1="1246.11" x2="2480.33" y2="1268.27"/><line class="cls-5" x1="2632.74" y1="1404.07" x2="2665.8" y2="1404.07"/></g><g id="WEB_PAGE" data-name="WEB PAGE"><g id="WEB_PAGE-2" data-name="WEB PAGE-2"><rect class="cls-4" x="889.16" y="3" width="1449.03" height="1032.06" rx="37.12"/><line class="cls-5" x1="889.16" y1="88.89" x2="2338.19" y2="88.89"/><rect class="cls-6" x="1087.02" y="38.37" width="28.32" height="28.32" rx="10.49"/><rect class="cls-6" x="1038.71" y="38.37" width="28.32" height="28.32" rx="10.49"/><rect class="cls-6" x="990.39" y="38.37" width="28.32" height="28.32" rx="10.49"/><rect class="cls-3" x="1081.18" y="33.18" width="28.32" height="28.32" rx="10.49"/><rect class="cls-1" x="1032.86" y="33.18" width="28.32" height="28.32" rx="10.49"/><rect class="cls-7" x="984.55" y="33.18" width="28.32" height="28.32" rx="10.49"/></g><g id="ICONS_PAGE" data-name="ICONS PAGE"><rect class="cls-5" x="1147.56" y="732.22" width="949.37" height="189.06" rx="17.61"/><g id="DELIVERY"><rect class="cls-1" x="1823.41" y="784.76" width="109.58" height="84.64"/><polygon class="cls-4" points="1979.39 869.4 1932.99 869.4 1932.99 805.91 1956.19 805.91 1979.39 839.53 1979.39 869.4"/><polygon class="cls-4" points="1941.39 817.67 1953.23 817.67 1965.08 834.82 1941.39 834.82 1941.39 817.67"/><circle class="cls-4" cx="1855.73" cy="870.23" r="11.9"/><circle class="cls-4" cx="1956.03" cy="870.23" r="11.9"/><line class="cls-5" x1="1910.99" y1="805.91" x2="1876.04" y2="805.91"/><line class="cls-5" x1="1898.38" y1="820.37" x2="1863.44" y2="820.37"/><line class="cls-5" x1="1910.99" y1="834.82" x2="1876.04" y2="834.82"/></g><g id="GLOBE"><circle class="cls-4" cx="1721.99" cy="832.75" r="49.22"/><line class="cls-5" x1="1722.2" y1="783.68" x2="1722.2" y2="882.12"/><path class="cls-4" d="M1730.9,784s32.81,38.07,0,97.84"/><path class="cls-5" d="M1713.49,784s-32.81,38.07,0,97.84"/><line class="cls-5" x1="1672.98" y1="832.9" x2="1771.41" y2="832.9"/><path class="cls-5" d="M1691.54,871.41s29.78-17.9,60.65,0"/><path class="cls-5" d="M1691.54,794.62s29.78,17.9,60.65,0"/></g><g id="SEARCH"><ellipse class="cls-6" cx="1579.43" cy="822.64" rx="36.08" ry="34.3"/><ellipse class="cls-1" cx="1572.62" cy="818.91" rx="37.14" ry="35.3"/><path class="cls-5" d="M1591.19,801.26a24.09,24.09,0,0,1,1.25,34c-.4.43-.82.85-1.25,1.25"/><path class="cls-1" d="M1598.84,856.24l23,24.19a5.59,5.59,0,0,0,7.62.37h0a5,5,0,0,0,.59-7l-.19-.21-23-24.19a5.59,5.59,0,0,0-7.62-.37h0a5,5,0,0,0-.59,7Z"/></g><g id="PRESENT"><rect class="cls-3" x="1402.09" y="798.3" width="82.98" height="82.98" rx="6.64"/><rect class="cls-3" x="1389.02" y="798.3" width="76.76" height="82.98" rx="6.64"/><line class="cls-5" x1="1428.65" y1="885.78" x2="1428.65" y2="793.08"/><line class="cls-5" x1="1384.94" y1="839.59" x2="1488.74" y2="839.59"/><path class="cls-5" d="M1441.09,771.67h6.1a12.44,12.44,0,0,1,12.43,12.43h0v1.76a12.44,12.44,0,0,1-12.43,12.43h-18.53v-14.2a12.44,12.44,0,0,1,12.43-12.43h0Z"/><path class="cls-5" d="M1428.51,798.3h-16.93a9.82,9.82,0,0,1-9.82-9.82v-1.39a9.82,9.82,0,0,1,9.82-9.82h7.11a9.82,9.82,0,0,1,9.82,9.82V798.3Z"/><polyline class="cls-5" points="1444.13 815.29 1428.5 798.3 1418.95 807.86"/></g><g id="PACK"><path class="cls-5" d="M1284.31,770.89h1.54a10.87,10.87,0,0,1,10.87,10.87V796.6h-23.28V781.76A10.87,10.87,0,0,1,1284.31,770.89Z"/><path class="cls-5" d="M1276.09,770.89h1.54a10.87,10.87,0,0,1,10.87,10.87V796.6h-23.28V781.76A10.87,10.87,0,0,1,1276.09,770.89Z"/><polygon class="cls-2" points="1320.78 882.12 1295.64 882.12 1306.12 796.56 1310.3 796.56 1320.78 882.12"/><polygon class="cls-1" points="1306.12 796.56 1295.64 882.12 1235.94 882.12 1246.41 796.56 1306.12 796.56"/></g></g><g id="BAG_PAGE" data-name="BAG PAGE"><rect class="cls-2" x="1570.18" y="383.85" width="237.12" height="237.12" rx="17.61"/><rect class="cls-4" x="1560.32" y="373.87" width="237.12" height="237.12" rx="17.61"/><g id="BAG"><path class="cls-8" d="M1720.87,585.16h-67.48A42.36,42.36,0,0,1,1611,542.83a41.86,41.86,0,0,1,1.09-9.59l13.6-48.12a9.25,9.25,0,0,1,9-7.16h104.82a9.24,9.24,0,0,1,9,7.16l13.61,48.12a42.39,42.39,0,0,1-41.25,51.92Z"/><path class="cls-5" d="M1712.72,577.83h-67.48A42.38,42.38,0,0,1,1604,525.9l13.61-48.11a9.24,9.24,0,0,1,9-7.17h104.83a9.26,9.26,0,0,1,9,7.17L1754,525.9a42.36,42.36,0,0,1-41.27,51.93Z"/><path class="cls-5" d="M1719.83,462.1a55.27,55.27,0,0,1-.65,8.52h-80.4a55.27,55.27,0,0,1-.65-8.52c0-26.35,18.28-47.7,40.84-47.7S1719.83,435.75,1719.83,462.1Z"/><path class="cls-5" d="M1738.14,473.54c-1.38,31.4-27.9,56.45-59.17,56.45-30.43,0-57.77-25-59.15-56.44a9.2,9.2,0,0,1,6.74-2.93h104.82A9.31,9.31,0,0,1,1738.14,473.54Z"/><rect class="cls-5" x="1674.9" y="520.78" width="8.15" height="19.19"/></g><circle class="cls-3" cx="1750.45" cy="376.78" r="26.21"/><polyline class="cls-5" points="1740.8 376.02 1749.4 388.17 1760.11 365.39"/></g><g id="SHOES_PAGE" data-name="SHOES PAGE"><rect class="cls-5" x="1560.32" y="225.72" width="539.05" height="104.52" rx="14.5"/><path class="cls-4" d="M1718.74,312.54h-74.17S1624.28,280,1617.35,280c-4,0-5.64,32.59-5.64,32.59h-4.62s-10.8-66.56,1.17-70.37c7.8-2.48,28.92,4.12,34.72,30.25,4.9,22,33.07,25.95,36.2,11.43C1679.18,283.85,1717.42,295.12,1718.74,312.54Z"/><path class="cls-4" d="M1909,296.56c-.13,1.55-2.92,8.93-2.92,8.93l-142.58-4.83v-8a72.63,72.63,0,0,1,6.93-29.86c3.71-7.73,8.84-5.8,8.84-5.8s13.94,13.63,29.58,13.63a7.86,7.86,0,0,0,6.72-3.92,18.41,18.41,0,0,0,2.13-4.64,35.54,35.54,0,0,0,1.37-6.54,5.87,5.87,0,0,1,8.51-4.49c6.14,3.16,13.59,10.22,33.55,21,1,.54,2,1.1,3.1,1.66C1888.52,286.49,1908.75,281.74,1909,296.56Z"/><path class="cls-1" d="M1893,312.54c4.13,0,9.16-1.87,11.87-4.89a17,17,0,0,0,3.71-14.47h-.11a13.44,13.44,0,0,1-12.87,10.91L1772,300.46a9.17,9.17,0,0,1-8.46-6.39v8.3c0,5.62,4.08,10.17,9.1,10.17Z"/><path class="cls-1" d="M1866.57,275c-30.88-10.56-46.33-15.34-48.86-12.8a35.54,35.54,0,0,0,1.37-6.54,5.87,5.87,0,0,1,8.51-4.49C1833.73,254.24,1844,263.62,1866.57,275Z"/><path class="cls-5" d="M1832.87,261l5.6-8.52a4.39,4.39,0,0,1,6.09-1.26l.18.12h0A4.4,4.4,0,0,1,1846,257l-.75,1.37"/><path class="cls-5" d="M1847.27,265.43l4.1-6.13a3.85,3.85,0,0,1,5.36-1l.14.1h0a3.84,3.84,0,0,1,1,5l-1.48,2.68"/><path class="cls-5" d="M1867.94,272c1.64-2.23,1.24-4.79-.4-6h0a4.06,4.06,0,0,0-5.68.83l-.12.17-2.51,4.11"/><circle class="cls-7" cx="2052.13" cy="225.72" r="22.42"/><line class="cls-5" x1="2044.76" y1="233.37" x2="2059.5" y2="218.07"/><line class="cls-5" x1="2059.5" y1="233.37" x2="2044.76" y2="218.07"/><path class="cls-4" d="M1951.91,276.79s-16,35.75,7.24,35.75H2067s4.34-17.51-23.68-22c-3.9-.63-15-2.76-15-2.76s3.46,14-21.2,12.89S1971.34,278.55,1951.91,276.79Z"/></g><g id="SHIRT_PAGE" data-name="SHIRT PAGE"><rect class="cls-2" x="1163.33" y="241.69" width="379.27" height="379.27" rx="17.61"/><rect class="cls-1" x="1147.56" y="225.72" width="379.27" height="379.27" rx="17.61"/><path class="cls-2" d="M1478.28,379l-50.35,42.65V535.88H1260.29V421.65L1210,379l38.63-48c11.71-10.19,29.54-11.79,42.49-11.79h110.82c26,0,32.59,4.89,39.34,10.21Z"/><path class="cls-4" d="M1474.09,371.21l-51.26,43.41V531H1252.09V414.62l-51.25-43.41,39.32-49c11.93-10.38,30.09-12,43.27-12h112.83c26.47,0,33.17,5,40,10.39Z"/><line class="cls-5" x1="1252.11" y1="414.62" x2="1252.11" y2="373.48"/><line class="cls-5" x1="1422.75" y1="415.01" x2="1422.75" y2="373.87"/><line class="cls-5" x1="1337.45" y1="348.13" x2="1337.45" y2="530.93"/><path class="cls-4" d="M1390.46,310.25H1352a1.71,1.71,0,0,0-1.64,1.16l-12.94,36.72-13.62-36.42a2.25,2.25,0,0,0-2.11-1.46h-37.88l18.41-15.67a22.76,22.76,0,0,1,14.76-5.44h40.28a22.78,22.78,0,0,1,14.77,5.44Z"/><path class="cls-4" d="M1310.17,294.69l13.11,15.56-15,21.41-24.46-21.41L1303,294.08a5.09,5.09,0,0,1,7.17.59Z"/><path class="cls-4" d="M1364.14,294.69,1351,310.25l15,21.41,24.46-21.41-19.16-16.17a5.09,5.09,0,0,0-7.17.6Z"/><path class="cls-4" d="M1363.09,376.78h34V409a6.32,6.32,0,0,1-6.33,6.33h-21.34a6.32,6.32,0,0,1-6.33-6.33V376.78Z"/><circle class="cls-2" cx="1327.01" cy="361.54" r="4.13"/><circle class="cls-2" cx="1327.01" cy="393.15" r="4.13"/><circle class="cls-2" cx="1327.01" cy="424.76" r="4.13"/><circle class="cls-2" cx="1327.01" cy="456.37" r="4.13"/><circle class="cls-2" cx="1327.01" cy="487.98" r="4.13"/><circle class="cls-4" cx="1458.11" cy="233.54" r="41.1"/><path class="cls-2" d="M1447.52,215.16c-5.27,0-8.82,4.08-8.82,10.14,0,6.45,3.24,10.31,8.66,10.31s8.74-4,8.74-10.52C1456.09,219,1452.82,215.16,1447.52,215.16Zm-.07,16.61c-3.62,0-4.16-4.09-4.16-6.53,0-4,1.48-6.24,4.16-6.24,3.41,0,4.12,3.34,4.12,6.15,0,4.4-1.39,6.62-4.12,6.62Z"/><path class="cls-2" d="M1470,229.73c-5.18,0-8.81,4.17-8.81,10.13,0,6.36,3.32,10.31,8.66,10.31s8.74-4,8.74-10.52C1478.55,233.53,1475.26,229.73,1470,229.73Zm-.06,16.6c-3.62,0-4.16-4.08-4.16-6.52,0-4,1.51-6.25,4.16-6.25,3.4,0,4.11,3.35,4.11,6.15,0,4.25-1.5,6.62-4.11,6.62Z"/><polygon class="cls-2" points="1472.42 215.62 1449.46 249.8 1444.88 249.8 1467.82 215.62 1472.42 215.62"/></g><g id="PRESENT_PAGE" data-name="PRESENT PAGE"><rect class="cls-2" x="1866.85" y="383.85" width="237.12" height="237.12" rx="17.61"/><rect class="cls-3" x="1856.99" y="373.87" width="237.12" height="237.12" rx="17.61"/><g id="PRESENT-2"><rect class="cls-9" x="1925.86" y="465.05" width="121.4" height="107.35" rx="6.64"/><path class="cls-5" d="M2047.39,467.5v93.75a11.13,11.13,0,0,1-11.12,11.14h-27a11.14,11.14,0,0,0,11.14-11.14V467.5a11.15,11.15,0,0,0-11.14-11.16h27A11.15,11.15,0,0,1,2047.39,467.5Z"/><path class="cls-5" d="M2020.42,467.5v93.75a11.14,11.14,0,0,1-11.14,11.14h-85a11.14,11.14,0,0,1-11.19-11.09V467.5a11.16,11.16,0,0,1,11.15-11.16h85a11.15,11.15,0,0,1,11.18,11.12Z"/><line class="cls-5" x1="1968.49" y1="577.6" x2="1968.49" y2="447.96"/><line class="cls-5" x1="1908.45" y1="514.09" x2="2051.44" y2="514.09"/><path class="cls-5" d="M1985.87,419.11h8.53a17.4,17.4,0,0,1,17.39,17.39V439a17.4,17.4,0,0,1-17.39,17.39h-25.91V436.49A17.39,17.39,0,0,1,1985.87,419.11Z"/><path class="cls-5" d="M1968.29,456.33h-23.67a13.73,13.73,0,0,1-13.73-13.73v-2a13.73,13.73,0,0,1,13.73-13.73h9.94a13.73,13.73,0,0,1,13.73,13.73v15.68Z"/><polyline class="cls-5" points="1990.14 480.11 1968.29 456.35 1954.92 469.72"/></g></g></g><g id="ABSTRACT_ELEMENTS" data-name="ABSTRACT ELEMENTS"><circle class="cls-5" cx="256.39" cy="383.85" r="38.59"/><circle class="cls-5" cx="352.5" cy="218.07" r="12.23"/></g><g id="PACKAGES"><path class="cls-5" d="M1676.31,1251.08h4.7a33.1,33.1,0,0,1,33.1,33.1v32h-70.89v-32A33.1,33.1,0,0,1,1676.31,1251.08Z"/><path class="cls-5" d="M1700.22,1251.08h4.7a33.1,33.1,0,0,1,33.1,33.1v32h-70.93v-32a33.1,33.1,0,0,1,33.1-33.1Z"/><polygon class="cls-2" points="1844.55 1658.14 1749.6 1658.14 1789.85 1316.12 1804.3 1316.12 1844.55 1658.14"/><polygon class="cls-5" points="1789.85 1316.12 1749.6 1658.14 1528.95 1658.14 1569.21 1316.12 1789.85 1316.12"/><path class="cls-9" d="M1761.69,1420.54h-32.32l4.12-47.07a18,18,0,0,1,17.57-16.16h0a14.55,14.55,0,0,1,14.83,14.3,12.87,12.87,0,0,1-.08,1.86Z"/><path class="cls-5" d="M1758.85,1417.7h-32.32l4.12-47.07a18,18,0,0,1,17.57-16.17h0a14.58,14.58,0,0,1,14.83,14.32,12.67,12.67,0,0,1-.08,1.85Z"/><ellipse class="cls-10" cx="1747.08" cy="1367.52" rx="3.64" ry="3.34" transform="translate(-460.6 1587.8) rotate(-43.75)"/><path class="cls-5" d="M1747.19,1367.12l4.6-53.43a7.16,7.16,0,0,1,7.13-6.54h0a7.17,7.17,0,0,1,7.16,7.16h0"/><path class="cls-11" d="M1745.09,1400.69a4.08,4.08,0,0,0,2.19-1.09,3,3,0,0,0,.9-1.9,2.11,2.11,0,0,0-.56-1.81,5.26,5.26,0,0,0-2-1.08l-1.66-.49a15.05,15.05,0,0,1-2.91-1.11,4.52,4.52,0,0,1-1.81-1.74,4.85,4.85,0,0,1-.49-2.9,5.6,5.6,0,0,1,1.8-3.79,7.18,7.18,0,0,1,4.4-1.71h1.7a7.47,7.47,0,0,1,2.41.59,4.32,4.32,0,0,1,1.68,1.34,5.5,5.5,0,0,1,.81,1.41,3.35,3.35,0,0,1,.21,1.33,1.86,1.86,0,0,1-1.82,1.65,1.5,1.5,0,0,1-1.58-1.42h0a2.71,2.71,0,0,0-1.94-2.23l-1.7-.06a5.24,5.24,0,0,0-1.84.89,2.29,2.29,0,0,0-.78,1.66,1.92,1.92,0,0,0,.45,1.61,5.21,5.21,0,0,0,1.72,1l1.66.49c1.08.31,1.94.58,2.58.83a5.13,5.13,0,0,1,1.67,1.09,4.46,4.46,0,0,1,1.12,1.77,5.21,5.21,0,0,1,.26,2.25,6.55,6.55,0,0,1-3.31,5,8.12,8.12,0,0,1-3.4,1h-1.71a8,8,0,0,1-2.68-.74,6,6,0,0,1-1.84-1.4,5.35,5.35,0,0,1-1-1.75,4.48,4.48,0,0,1-.22-1.78,1.74,1.74,0,0,1,.6-1.16,1.86,1.86,0,0,1,1.3-.52,1.68,1.68,0,0,1,1,.29,1.27,1.27,0,0,1,.5.79,14,14,0,0,0,.49,1.68,2.7,2.7,0,0,0,.72,1.07,3.2,3.2,0,0,0,1.38.74Z"/><path class="cls-11" d="M1743.81,1405.33h-.07a.7.7,0,0,1-.64-.75v0l2-23.26a.71.71,0,0,1,.77-.64.72.72,0,0,1,.65.77l-2,23.25A.71.71,0,0,1,1743.81,1405.33Z"/><path class="cls-5" d="M1596.21,1363.35h3.41a24,24,0,0,1,24,24v23.18h-51.43v-23.17a24,24,0,0,1,24-24Z"/><path class="cls-5" d="M1613.56,1363.35H1617a24,24,0,0,1,24,24v23.18h-51.44v-23.17a24,24,0,0,1,24-24Z"/><polygon class="cls-4" points="1718.28 1658.71 1649.39 1658.71 1678.6 1410.55 1689.08 1410.55 1718.28 1658.71"/><polygon class="cls-4" points="1678.6 1410.55 1649.39 1658.71 1489.29 1658.71 1518.5 1410.55 1678.6 1410.55"/></g><g id="SHOPPING_CART" data-name="SHOPPING CART"><rect class="cls-3" x="274.36" y="854.85" width="327.86" height="363.35" rx="22.31"/><path class="cls-5" d="M550.09,889.22a25.59,25.59,0,0,0-43.68,18.09v74.53h51.17V907.31A25.51,25.51,0,0,0,550.09,889.22ZM532,908.07a5.52,5.52,0,1,1,5.52-5.52,5.52,5.52,0,0,1-5.52,5.52Z"/><path class="cls-4" d="M546.65,884.46A25.58,25.58,0,0,0,503,902.55v74.53h51.18V902.55A25.47,25.47,0,0,0,546.65,884.46Zm-18.09,18.85a5.53,5.53,0,1,1,5.52-5.54h0A5.53,5.53,0,0,1,528.56,903.31Z"/><path class="cls-5" d="M528.56,895.7V851.25a12.79,12.79,0,0,1,12.79-12.79h0a12.79,12.79,0,0,1,12.8,12.78h0v1.28"/><path class="cls-11" d="M539,941.15a7.74,7.74,0,0,0-2-2.8,8.74,8.74,0,0,0-2.79-1.72q-1.56-.58-4.2-1.32h-.12V926.5H530a4.8,4.8,0,0,1,3.38,3.53,2.64,2.64,0,0,0,2.7,2.25,2.58,2.58,0,0,0,1.88-.77,2.52,2.52,0,0,0,.78-1.84,5.33,5.33,0,0,0-.52-2.11,9.21,9.21,0,0,0-1.48-2.23,7.72,7.72,0,0,0-2.84-2.12,13.09,13.09,0,0,0-3.9-.94h-.12v-2.69a1.3,1.3,0,0,0-2.6,0v2.7a10.33,10.33,0,0,0-6.7,2.71,9.11,9.11,0,0,0-1.14,10.59,7.83,7.83,0,0,0,3.1,2.75,26.69,26.69,0,0,0,4.74,1.75V950A5.73,5.73,0,0,1,525,948.8a5.21,5.21,0,0,1-1.29-1.69c-.28-.62-.61-1.51-1-2.67a2.29,2.29,0,0,0-.91-1.25,2.82,2.82,0,0,0-1.62-.45,2.77,2.77,0,0,0-2.8,2.66,7.33,7.33,0,0,0,.59,2.81A9.37,9.37,0,0,0,519.8,951a10.67,10.67,0,0,0,3.1,2.22,13.83,13.83,0,0,0,4.33,1.16v2a1.3,1.3,0,1,0,2.6,0h0v-2.08H530a12,12,0,0,0,5.25-1.59,9,9,0,0,0,3.35-3.46,9.42,9.42,0,0,0,1.13-4.53A8.84,8.84,0,0,0,539,941.15ZM524.39,933a4,4,0,0,1,.07-5.17,7.37,7.37,0,0,1,2.76-1.4v8.13A8.26,8.26,0,0,1,524.39,933Zm8.87,15.46a5.89,5.89,0,0,1-3.32,1.73h-.12v-9.34h.12a9.43,9.43,0,0,1,3.35,1.71,3.66,3.66,0,0,1,1.14,2.86A4.33,4.33,0,0,1,533.26,948.42Z"/><path class="cls-2" d="M243.89,977.35H199.75s-42.4-37.55-60.93-59.7a85.19,85.19,0,0,1-6.93-9.64,21,21,0,0,1,17.72-32h.48C194.89,876,243.92,957.16,243.89,977.35Z"/><path class="cls-12" d="M268.24,977.35H237.18s-29.83-26.42-42.87-42a59,59,0,0,1-4.87-6.78,14.76,14.76,0,0,1,12.47-22.52h.33C233.76,906.05,268.25,963.15,268.24,977.35Z"/><path class="cls-1" d="M175.91,833.6c74.3-.78,100.14,105.39,98.53,143.75H243.89c0-20.19-49-101.35-93.8-101.35-15.89,0-25.26,14.16-20.47,27C129.62,903,98.83,834.41,175.91,833.6Z"/><path class="cls-1" d="M403.09,962.29c5.24-12.54-1.81-27-14.86-30.93-60.51-18.25-122.38,46-122.38,46H250.71s31.75-93.59,125.34-79.68C396.54,900.72,423.44,920.45,403.09,962.29Z"/><path class="cls-2" d="M403.09,962.5c-2.81,6.58-6.25,12.73-8.7,14.85H360s8.23-2.79,16.19-14.85c9.67-14.65,5.19-32.77-8.05-34a77.83,77.83,0,0,1,20.19,2.88C401.4,935.32,408.45,950,403.09,962.5Z"/><rect class="cls-2" x="142.14" y="974.19" width="323.56" height="362.32" rx="49.37"/><rect class="cls-4" x="91.06" y="974.19" width="314.16" height="362.32" rx="49.37"/><g id="SHOPPING_CART-2" data-name="SHOPPING CART-2"><path class="cls-5" d="M829.39,907.75H765.28a73.23,73.23,0,0,0-70,51.61l-103,333.21a100.92,100.92,0,0,1-96.42,71.11H139.33a63.6,63.6,0,0,0-61.75,48.38l-13,69.1a51.49,51.49,0,0,0,50,63.8H549.25"/><path class="cls-5" d="M496.18,1363.68H165.48a100.92,100.92,0,0,1-96.39-71.11L3,1026.09H674.7l-82,266.37A100.94,100.94,0,0,1,496.18,1363.68Z"/><line class="cls-5" x1="276.37" y1="1363.68" x2="171.99" y2="1026.09"/><line class="cls-5" x1="364.5" y1="1363.68" x2="468.88" y2="1026.09"/><line class="cls-5" x1="625.88" y1="1183.89" x2="43.61" y2="1183.89"/><circle class="cls-13" cx="500.37" cy="1627.61" r="50.99"/><circle class="cls-13" cx="154.18" cy="1627.61" r="50.99" transform="translate(-1476.4 1746.4) rotate(-88.76)"/><circle class="cls-5" cx="489.78" cy="1618.64" r="50.99"/><circle class="cls-5" cx="143.58" cy="1618.64" r="50.99"/></g><rect class="cls-7" x="475.64" y="1234.11" width="80.35" height="102.39" rx="14.49"/></g><rect class="cls-2" x="2033.66" y="752.09" width="164.42" height="36.25"/></g><g id="Layer_3" data-name="Layer 3"><g id="WOMAN"><g id="LEGS"><g id="RIGHT_LEG" data-name="RIGHT LEG"><path id="LEG" class="cls-14" d="M2176.46,1624.13c5.63,14.69,10.31,36.54-9.41,36.54H2060.42s-.31-16.25,24.59-18.42c42.15-3.67,55.41-37.08,56-52.89,1.21-85.18-32-345.09-37.53-395.36a615.12,615.12,0,0,0,106.91-12.73c-18.07,61.19,20.83,111.39,23.86,172.91,3,61.35-45.89,197.34-60.05,243.86C2173,1606.34,2173.93,1617.5,2176.46,1624.13Z"/><path id="SHOE" class="cls-7" d="M2176.46,1624.13s16.31,36.54-7.4,36.54H2058.79s-4.43-13.82,24.2-18.42c4-.63,15.38-2.82,15.38-2.82s-3.54,10.22,21.67,9.11S2156.6,1626,2176.46,1624.13Z"/><path id="SHADOW" class="cls-2" d="M2207.31,1194.29a534.58,534.58,0,0,1-101.73,18.12h0l-2.13-18.41a614.89,614.89,0,0,0,106.9-12.73Z"/></g><g id="LEFT_LEG" data-name="LEFT LEG"><path id="LEG-2" class="cls-14" d="M1889.79,1159a510.35,510.35,0,0,0,110,29.09l-32.6,53.29c0,10.55,46.42,59.4,59.19,103,15.42,52.76.81,199.66,5.68,223.2,3,14.71-12.24,45.32-27.19,59.49-9,8.51-20.42,5.34-20.42,5.34s24.17-48.33,12.71-85.93c-42.24-138.72-125-297-125-319,0-11.88,6.09-34.38,15.15-61.25Z"/><path id="SHOE-2" class="cls-7" d="M2030.39,1570.05c6.24-3.37,27.59,15.5,26.5,26l-51.63,63.85h-52.92s-5.44-22,32.07-27.42S2006.22,1583.13,2030.39,1570.05Z"/><path id="SHADOW-2" class="cls-2" d="M1889.79,1159a510.35,510.35,0,0,0,110,29.09L1987.68,1208c-33.73-7.14-67.84-21.93-100.39-41.64Z"/></g></g><g id="DRESS"><path id="DRESS-2" class="cls-7" d="M2251.09,1170.75s-181.75,61.68-368.41-14.6c0,0,136.35-303.54,147.7-326.26S2041,770.65,2041,770.65s-5.7-58.4-22.74-77.88-26.77-41.39-17.85-69,19.45-82,19.45-82l37.36-12.18,131.74-2.44s16.3,19,12.79,54.71c-3,31-41.9,118.32-8.18,188.76,15.41,25.15,69.68,70.48,76.24,149.76C2278.25,1022.68,2251.09,1170.75,2251.09,1170.75Z"/></g><path class="cls-14" d="M2046.86,572c-.71-27.78-22.42-44.28-44.37-16.82-15.54,19.42-55.62,87.94-78.54,131.79-22.56-34.21-72.61-93.49-100.45-119.58.94-11.52-4.62-43.38-8-45.76-3.73-2.63-21.32-28.36-21.32-28.36s-6.48,3.48-.48,14.13c7,12.36,5.45,16.28,5.45,16.28s-7.86,1.29-8.81,6.48-7.08,1.54-9.89,9.42c-1.64,4.61-5.39,6.4-4.34,11,1,4.31,22.37,22.28,33.38,25.39,15.23,45.65,62.58,150.16,107.11,177.82,9.61,4.42,25.68-.53,46.27-25C2048.71,626.82,2047.47,595.42,2046.86,572Z"/><g id="HEAD"><g id="NECK"><path id="NECK-2" class="cls-14" d="M2147.17,424.83c-.81,21.1-3.91,53.77,46.29,110.38,26.92,30.35-55,39.12-98.87,16.18-30.17-15.76-37.41-21.77-37.41-21.77s28.36-2.53,39.4-31c7.62-19.65.05-42-3.77-73.81Z"/><path id="SHADOW-3" class="cls-2" d="M2134.25,429c.29,2.7-5.27,51.64-34.85,60.61,2.86-15.6-4.19-42-5.77-60.64Z"/></g><g id="HAIR"><path class="cls-15" d="M2175.66,431.63c6.76,32.49,102.81,23.6,109.24,103.36"/><path class="cls-2" d="M2182.64,593.36c-35.55-16.28-85.13-64.74-36.16-139.08-5.61-2.09-11.52-6-13.35-13.13-3.76-14.81-54.51-32.23-56.83-63.29-.78-10.41,7.08-35.53,60.4-32.64,53.08,2.89,57.9,66.7,41,85.92l-.08.09c7.47,36.23,109.22,36.43,94.65,125.73C2268.21,581.9,2230.09,615.08,2182.64,593.36Z"/></g><path id="HEAD-2" class="cls-14" d="M2130.87,440.9c-.13,2.69-5.18,20.23-40.9,28.61-6.48,1.53-23.57,2-24-2-.48-4.7-3.36-23.26-3.63-33.19-.08-3.06-10.15-9.92-8.31-12.14,5.65-6.82,15.64-14.65,15.86-17.46,1.67-21.12,9.59-32.89,17.36-32.47,4.44.24-1.2,39.42,43.63,52.23,0,0,12.74-6.61,14.64.37S2130.87,440.9,2130.87,440.9Z"/></g></g><g id="LEGS-2"><g id="SHOES"><path class="cls-2" d="M1082.51,1617.05s-16.56,34.43-5.19,46.88h146.06s-.81-24.11-36-27.91c-31.57-3.41-50.8-19-50.8-19Z"/><rect class="cls-2" x="1073.08" y="1663.93" width="153.95" height="8.66" rx="1.99"/><path class="cls-5" d="M1146.09,1634.87l4.91-11.07a5.2,5.2,0,0,1,6.86-2.68l.26.12h0a5.23,5.23,0,0,1,2.58,6.39l-.68,1.87"/><path class="cls-5" d="M1160.52,1640l4.75-11.35a4.56,4.56,0,0,1,6-2.33l.22.1h0a4.56,4.56,0,0,1,2.25,5.58l-.41,1.57"/><path class="cls-5" d="M1175.15,1644.64l3.12-11.47a4.56,4.56,0,0,1,5.67-3.07l.21.07h0c2.16.76,3.58,2.84,3.25,5.88"/></g><g id="SHOES-2"><path class="cls-2" d="M822.42,1617.05s-16.56,34.43-5.19,46.88H955.14s-.82-24.11-36-27.91c-31.58-3.41-50.8-19-50.8-19Z"/><rect class="cls-2" x="812.99" y="1663.93" width="145.79" height="8.66" rx="1.99"/><path class="cls-5" d="M877.8,1634.87l4.91-11.07a5.23,5.23,0,0,1,6.9-2.67l.23.11h0a5.22,5.22,0,0,1,2.57,6.39l-.68,1.87"/><path class="cls-5" d="M892.28,1640l4.75-11.35a4.56,4.56,0,0,1,6-2.33l.22.1h0a4.57,4.57,0,0,1,2.25,5.58l-.41,1.57"/><path class="cls-5" d="M906.9,1644.64l3.13-11.47a4.56,4.56,0,0,1,5.67-3.07l.21.07h0c2.16.76,3.58,2.84,3.25,5.88"/></g><path id="PANTS" class="cls-3" d="M1123.24,873.23c11,41,14.78,178.81,18.34,381.89,2.59,147.35,15.39,357.12,15.39,357.12s-33.66,14.62-93.16,3.26c0,0-57-187.8-36.69-324.61,3.24-21.92-27.57-151.75-27.57-151.75S876.89,1582,876.89,1618.2c0,0-47.81,9.19-76.21,0,0,0-42.9-201.73,25.16-319.22,36.65-63.27,28.25-294.67,29.25-313.32,3.37-65.78,35.56-115.32,35.56-115.32Z"/><path id="SHADOW-4" class="cls-5" d="M999.55,1140.77c-4.06-17.86-25.21-147-30.89-151.91S953.24,977.5,946.75,971"/><path id="SHADOW-5" class="cls-2" d="M1127.09,893.25c-85.12,45.36-214.35,23.16-245.16-7.17a176,176,0,0,1,8.7-15.74l232.63,2.89A176.69,176.69,0,0,1,1127.09,893.25Z"/></g><g id="LEFT_HAND" data-name="LEFT HAND"><path id="HAND" class="cls-14" d="M895.75,795.46a103.2,103.2,0,0,1-2.85,13c-33.57-.54-63.25-5.45-77.5-19.13-41.46-39.8-10.3-137.11-8.35-143,14.51,9.65,35.38,20.43,65.12,30.41C885.58,730.8,897.84,781.07,895.75,795.46Z"/><path id="SHADOW-6" class="cls-2" d="M807.09,646.31c14.51,9.65,35.38,20.43,65.12,30.41,3.09,12.47,6.12,24.72,8.93,36.39-40-17.87-60.28-39.18-77.78-53.75Z"/></g><g id="RIGHT_HAND" data-name="RIGHT HAND"><path class="cls-14" d="M1423.09,467.68c-2-2.61-5.38-3.14-6.06-4.22s-.45-3.8-2.45-5.55-4.93-1.48-6.18-2.5-.4-4-2.78-6.55-5.78-2.23-6.54-3,12.51-23.88,7.46-26.87-30.9,29.78-36,37.46c-10.5,15.83-10.6,35.7-12,42.82a1.87,1.87,0,0,0-.3.26c-4,4.87-99.84,99.83-116.88,131.49l-15.17-23-87.1,61.69s63.31,92,119.3,72.53c53-18.43,113.27-197.51,124.39-222.16,18.28-3.61,33.57-23.92,38.55-33.18C1427.8,475,1425.09,470.28,1423.09,467.68Z"/><path id="SHADOW-7" class="cls-2" d="M1230.42,614.49a172,172,0,0,1-71.19,80.19,271.26,271.26,0,0,1-20.12-25L1226.18,608Z"/></g><path id="T-SHIRT" class="cls-4" d="M872.17,676.72c13.41,54.08,25.67,104.35,23.58,118.74-4.38,30.19-28.64,67.38-17.27,76,31.87,24.31,134.74,49.56,253,8,0,0-15.15-28.56,1.23-142.63,2.42-16.86,5.61-40.33,8.85-66.14h.07C1194.83,652,1236,596.51,1236,596.51s-25.84-68.62-54.36-91.74c-18-14.6-111.25-40.76-118.87-45.2L952.14,458.1c-7.38.62-86.42,25.67-118.91,49.6-29.57,21.78-57.29,108.7-57.29,108.7S791.21,649.52,872.17,676.72Z"/><g id="NECK-3"><path class="cls-14" d="M948.83,458.78c8.83-4.11,39.66-35.82,34.8-74.11l68.57,7.8s6.85,47.58,18.21,71.6a287.43,287.43,0,0,1-73.64,8.73C955.86,472.28,948.83,458.78,948.83,458.78Z"/><path class="cls-2" d="M1061.78,440.18c-6.89-.8-21.58-3.81-29.37-11-12.69-11.7-30.5-37.56-30.67-42.29l50.46,5.58S1056.44,416.33,1061.78,440.18Z"/></g><path id="FACE" class="cls-14" d="M1018.3,387.25s10.79,19.23,21.85,22,36.41.61,44.12-4c4.76-2.84,3.32-26.43,2.41-35-.18-1.65,12.84-7.16,12-12.19-.89-5.34-15.65-18-17-25.09-3.82-20.81-9-40.46-10.7-41.19-2.76-1.21-46.17,1.55-51.3,13.4s1.33,48.54,1.33,48.54-14-8.19-18.2,2.75C996.64,372.5,1018.3,387.25,1018.3,387.25Z"/><g id="HAIR-2"><path class="cls-16" d="M1099.45,278.53c15.08,12.18-7.59,62.52-53.56,26.78"/><path class="cls-16" d="M935.09,317.4c8.86-15.81,26.28-2.59,26.28-2.59"/><path class="cls-2" d="M1085.48,367.49s-17,13.83-26.59,15-17.55-27.65-20.51-40.39c-6.64-29.58-5.86-41.4,21.63-31.31,36.26,13.31,43.52-31.54,29.53-39.09-8.91-4.8-13.23-3.31-25.79,3-14,7.08-43.65-16.36-78.91-6-33.11,9.72-28.06,43.14-28.06,43.14s-13.06-2.37-15.43,16.72c-1.87,15.1,19.08,41.85,35.23,71.77,4.53,8.39,26.49,3.38,31.9-5.08,0,0,7.24-12.35-1.82-27.34-7.43-12.28,5.36-22.19,18.1-11.48-1.87,8.59-5.92,31.79,1.75,43.76,11.47,17.9,70.59,20.57,72.06,10.62S1085.48,367.49,1085.48,367.49Z"/></g><circle class="cls-17" cx="2131.88" cy="424.18" r="14.65"/><path class="cls-15" d="M2126.31,433.12s-1.69-5.77-.13-11a10.71,10.71,0,0,1,8.17-7.6"/><line class="cls-15" x1="2134.35" y1="425.93" x2="2126.18" y2="422.14"/><circle class="cls-18" cx="2142.76" cy="440.6" r="6.81"/><ellipse class="cls-2" cx="2077.78" cy="406.02" rx="3.33" ry="4.88"/><path class="cls-15" d="M2066,440.6s7.54.67,11.75-4.43"/><path class="cls-14" d="M1032.83,386A25.94,25.94,0,1,1,1019,336"/><path class="cls-14" d="M1010.09,358s10.35-6.73,18.11,5.17"/><line class="cls-5" x1="1021.72" y1="357.09" x2="1016.39" y2="367.49"/><ellipse class="cls-2" cx="1068.81" cy="340.15" rx="4.12" ry="6.21" transform="translate(-45.38 211.16) rotate(-11.05)"/><path class="cls-2" d="M1054.63,325.5l9.51-5.13a3.62,3.62,0,0,1,4.91,1.46h0a3.63,3.63,0,0,1-1.47,4.91l-9.51,5.13a3.61,3.61,0,0,1-4.9-1.46h0A3.62,3.62,0,0,1,1054.63,325.5Z"/><line class="cls-5" x1="844.98" y1="573.85" x2="872.17" y2="676.72"/><path class="cls-5" d="M1179.7,513.55s-58.09,3.54-67,66.5"/></g></g></g></svg>